<?xml version="1.0" encoding="UTF-8"?>
<svg id="Capa_2" data-name="Capa 2" xmlns="http://www.w3.org/2000/svg" viewBox="0 0 187.76 180.84">
  <defs>
    <style>
      .cls-1 {
        fill: #fff;
      }
    </style>
  </defs>
  <path class="cls-1" d="M133.67,78.8c-.3,1.56-.53,3.13-.91,4.67-.84,3.47-2.37,6.65-4.29,9.63-3.78,5.86-8.66,10.76-13.84,15.34-7.2,6.36-14.5,12.6-21.77,18.88-2.39,2.06-5.06,2.16-7.39,.14-8.2-7.11-16.43-14.19-24.53-21.42-4.25-3.79-8.08-8.01-11.19-12.82-3.75-5.79-5.73-12.08-5.21-19.01,.54-7.27,3.22-13.61,8.7-18.57,4.22-3.81,9.24-5.81,14.91-6.08,8.34-.4,14.83,3.17,20,9.49,.29,.36,.56,.73,.9,1.15,.7-.84,1.34-1.66,2.03-2.42,3.76-4.18,8.28-7.07,13.91-7.94,6.61-1.02,12.7,.38,18.1,4.34,5.77,4.22,8.9,10.09,10.19,17.02,.15,.79,.26,1.58,.39,2.37v5.23Zm-44.62,44.81c.16-.12,.26-.19,.34-.26,7.16-6.19,14.36-12.32,21.46-18.58,4.75-4.19,9.25-8.64,12.82-13.93,4.18-6.19,5.75-12.89,4.08-20.25-1.8-7.91-7.72-14.3-15.98-15.55-4.78-.72-9.17,.19-13.12,2.99-2.77,1.96-4.86,4.52-6.69,7.36-1.5,2.33-4.23,2.3-5.8,.01-.66-.96-1.27-1.95-1.99-2.85-3.42-4.29-7.65-7.24-13.29-7.68-4.72-.37-9.04,.8-12.83,3.65-4.72,3.55-7.19,8.43-8.04,14.2-.83,5.6,.25,10.83,3.01,15.74,2.39,4.27,5.49,8,9.04,11.31,5.22,4.87,10.58,9.59,15.92,14.32,3.63,3.21,7.34,6.32,11.07,9.52Z"/>
</svg>