<?xml version="1.0" encoding="UTF-8"?>
<svg id="Capa_3" data-name="Capa 3" xmlns="http://www.w3.org/2000/svg" viewBox="0 0 187.76 180.84">
  <defs>
    <style>
      .cls-1 {
        fill: #fff;
      }
    </style>
  </defs>
  <path class="cls-1" d="M81.99,123.29c-.74-2.52-1.3-4.77-2.07-6.94-.37-1.03-.48-1.9-.07-2.93,.32-.79,.41-1.68,.66-2.77-2.03,1.1-3.75,2.1-5.53,2.98-4.2,2.08-8.62,3.44-13.35,3.21-6.89-.33-12.39-3.41-16.34-9.04-2.93-4.17-3.1-8.8-1.06-13.33,1.1-2.44,2.79-4.63,4.37-6.83,.95-1.32,2.03-1.42,2.94-.64,.87,.75,.86,1.65-.07,2.93-1.88,2.59-2.92,5.37-1.29,8.43,1.59,3,4.2,4.79,7.56,5.25,4.86,.67,8.06-1.26,9.95-5.82,2.04-4.92,4.45-9.63,7.58-13.96,5.19-7.19,12.32-11.26,20.85-13.14,1.53-.34,3.04-.78,4.54-1.21,3.82-1.08,5.85-3.71,6.46-7.55,.33-2.1,.67-4.19,1-6.29,.85-5.52,4.1-8.87,9.61-9.69,2.05-.31,4.15-.25,6.22-.47,1.03-.11,2.18-.24,3.02-.77,4.05-2.55,9.34-.52,11.43,3.07,1.24,2.14,1.88,4.45,1.92,6.91,.03,1.47-.78,2.25-2.23,2.07-4.11-.53-7.01,1.6-9.74,4.16,.03,.13,.07,.25,.1,.38,2.77-.55,5.55-1.04,8.3-1.66,2.33-.52,3.28,.18,3,2.54-.18,1.56-.47,3.1-.81,4.64-.41,1.86-1.69,3.1-3.21,4.12-2.73,1.82-5.82,2.73-8.93,3.6-.42,.12-1.04,.57-1.07,.91-.27,3.12-1.01,6.1-2.55,8.88,2.18,1.39,3.62,3.22,3.94,5.75,.12,.95,.08,1.95-.1,2.89-.25,1.38-1.52,1.94-2.72,1.2-1.36-.84-2.66-1.01-4.08-.22-.88,.49-1.64,.21-2.28-.51-.31-.35-.61-.7-.99-1.13-1.88,2.7-4.52,4.13-7.52,5.04-.35,.11-.7,.58-.83,.96-1.67,4.74-4.56,8.49-8.8,11.22-.33,.21-.68,.88-.58,1.18,.62,1.78,1.37,3.53,2.11,5.27,.08,.2,.37,.35,.59,.43,3.29,1.22,5.43,3.54,6.58,6.91,.51,0,1.01,0,1.52,0,9.32,0,18.64,0,27.96,0,1.51,0,2.3,.6,2.34,1.74,.03,.99-.44,1.64-1.42,1.81-.54,.1-1.1,.08-1.65,.08-30.47,0-60.94,0-91.41,0-.51,0-1.02,0-1.53-.06-.99-.13-1.51-.72-1.54-1.71-.04-1.01,.55-1.58,1.46-1.82,.4-.1,.85-.05,1.27-.05,11.49,0,22.98,0,34.47,0h2.03Zm41.25-33.61c-.55-1.44-1.57-2.28-2.94-2.62-1.89-.47-3.8-.85-5.7-1.23-1.15-.23-1.85-.98-1.75-1.96,.1-1,.92-1.72,2.07-1.64,1.26,.09,2.55,.24,3.76,.58,.89,.25,1.19-.04,1.54-.75,1.25-2.57,1.93-5.24,1.73-8.12-.12-1.72,.26-2.16,1.95-2.54,3.27-.74,6.49-1.62,9.47-3.25,1.76-.96,2.29-2.45,2.32-4.39-.37,.03-.66,.02-.94,.09-3.5,.79-7.04,1.17-10.63,.93-1.22-.08-2.44-.33-3.63-.63-.88-.22-1.32-.94-1.23-1.85,.09-.89,.58-1.55,1.53-1.6,2-.11,3.54-1.15,4.94-2.41,3.08-2.78,6.36-5.11,10.81-5.28-.25-.8-.43-1.5-.67-2.17-1.07-2.95-4.51-4.78-7.53-2.8-1.19,.78-2.87,.92-4.36,1.11-1.8,.23-3.66,.11-5.46,.34-4.06,.52-6.28,2.83-6.85,6.86-.3,2.1-.66,4.19-1,6.28-.86,5.3-3.88,8.74-9,10.31-1.58,.48-3.17,.94-4.79,1.28-9.21,1.95-16.26,6.92-20.9,15.12-1.89,3.35-3.36,6.95-5.2,10.34-.94,1.72-2.01,3.52-3.46,4.79-5.17,4.52-13.33,3.76-18.28-1.54-.85-.91-1.56-1.97-2.33-2.96-.31,2.02,.51,4.52,2.19,6.64,4.72,5.96,12.23,8.02,20.15,5.51,6.72-2.13,12.22-6.2,17.33-10.91,.76-.7,1.06-1.5,1.06-2.47,0-3.09-1.19-5.59-3.61-7.53-1.09-.87-1.28-1.87-.6-2.74,.69-.88,1.75-.95,2.81-.12,2.44,1.89,4.27,4.32,4.63,7.37,.34,2.88,.15,5.83-.02,8.74-.08,1.52-1.06,3.09-.81,4.49,.27,1.49,1.51,2.8,2.33,4.2,.02,.04,.05,.07,.06,.11,1.25,3.27,2.5,6.54,3.8,9.96h8.4c-.71-1.62-1.86-2.74-3.37-3.2-1.63-.5-2.53-1.6-3.35-2.91-1.28-2.06-1.97-4.31-2.33-6.68-.26-1.74,.26-2.82,1.9-3.8,5.49-3.28,8.77-8.02,8.23-14.68-.16-1.97-1.05-3.9-1.68-5.82-.35-1.09-.11-2.06,.79-2.51,.93-.47,1.94-.18,2.45,.89,.59,1.22,1.16,2.47,1.5,3.77,.43,1.66,.63,3.38,.94,5.14,1.91-.7,3.56-1.65,4.48-3.54,.73-1.5,1.49-1.91,3.05-1.44,.83,.25,1.57,.79,2.37,1.17,.31,.15,.66,.32,.98,.31,.89-.03,1.77-.14,2.81-.24Zm-36.87,16.56c-1.6,.93-3.04,1.89-2.32,4.13,.16,.48,.03,1.11-.12,1.63-.57,1.97-.4,3.8,.35,5.75,.66,1.7,.78,3.61,1.15,5.48h6.31c.02-.18,.07-.3,.05-.42-.03-.25-.08-.5-.14-.75-.84-3.77-2.44-7.23-4.59-10.41-1.12-1.66-1.98-3.16-.66-5.05,.05-.07-.02-.24-.04-.37Z"/>
  <path class="cls-1" d="M86.37,106.23c.02,.13,.09,.29,.04,.37-1.32,1.9-.46,3.4,.66,5.05,2.14,3.18,3.75,6.64,4.59,10.41,.06,.25,.11,.5,.14,.75,.01,.12-.03,.24-.05,.42h-6.31c-.37-1.87-.49-3.78-1.15-5.48-.75-1.95-.93-3.78-.35-5.75,.15-.52,.28-1.15,.12-1.63-.72-2.24,.72-3.2,2.32-4.13Z"/>
  <path class="cls-1" d="M118.9,53.7c.01-1.16,1.04-2.16,2.22-2.17,1.25,0,2.27,1.03,2.22,2.27-.05,1.19-1.04,2.11-2.26,2.08-1.2-.03-2.19-1.02-2.17-2.19Z"/>
</svg>