<?xml version="1.0" encoding="UTF-8"?>
<svg id="Capa_1" data-name="Capa 1" xmlns="http://www.w3.org/2000/svg" viewBox="0 0 187.76 180.84">
  <defs>
    <style>
      .cls-1 {
        fill: #fff;
      }
    </style>
  </defs>
  <path class="cls-1" d="M69.11,128.68c-.32-.33-.75-.62-.95-1.01-.54-1.09,.28-2.31,1.54-2.33,1.73-.02,3.45,0,5.23,0,.04-.69,0-1.34,.11-1.96,.46-2.48,2.54-4.18,5.11-4.21,1.37-.02,2.73,0,4.17,0,.65-2.73,1.29-5.43,1.97-8.27h-1.06c-8.3,0-16.6,0-24.9,0-3.41,0-6.08-1.99-6.88-5.13-.18-.72-.25-1.49-.25-2.24-.01-14.05-.01-28.11,0-42.16,0-4.52,2.86-7.39,7.36-7.39,14.59,0,29.17-.01,43.76,.02,.87,0,1.35-.28,1.81-.99,1.55-2.39,3.11-4.77,4.76-7.09,1.75-2.45,4.22-3.47,7.17-2.97,3.16,.54,5.16,2.5,5.96,5.61,.47,1.83,.11,3.59-.8,5.36,.35,.02,.61,.04,.87,.06,4.08,.19,6.85,3.05,6.86,7.14,.01,6.85,0,13.69,0,20.54,0,7.38,0,14.75,0,22.13,0,3.4-2.01,6.09-5.15,6.88-.72,.18-1.49,.24-2.24,.24-8.19,.02-16.37,.01-24.56,.01h-1.14c.66,2.79,1.3,5.48,1.96,8.27,1.39,0,2.78-.02,4.17,0,2.56,.04,4.57,1.65,5.09,4.13,.13,.62,.1,1.27,.15,2.04,1.23,0,2.47,0,3.72,0,.48,0,.95,0,1.42,0,.86-.01,1.44,.39,1.69,1.21,.25,.8-.07,1.41-.7,1.89-.11,.08-.21,.17-.31,.25h-45.95ZM103.17,57.39c-.48,0-.75,0-1.03,0-13.86,0-27.72,.03-41.58-.03-2.29-.01-3.95,1.48-3.94,3.92,.07,10.2,.03,20.4,.03,30.6,0,.29,0,.59,0,.95,1.15,0,2.18,0,3.21,0,.59,0,1.18-.03,1.76,.05,.89,.13,1.46,.82,1.46,1.67,0,.86-.55,1.53-1.46,1.66-.47,.07-.95,.05-1.42,.05-1.16,0-2.32,0-3.51,0,0,2.87-.08,5.6,.05,8.33,.03,.71,.61,1.47,1.12,2.05,.71,.81,1.77,.83,2.8,.83,20.96,0,41.92,0,62.88,0,.39,0,.78-.02,1.17-.07,1.42-.19,2.72-1.42,2.75-2.84,.07-2.71,.02-5.42,.01-8.13,0-.04-.07-.08-.15-.17-.35,0-.74,0-1.12,0-16.85,0-33.7,0-50.55,0-.42,0-.84,0-1.25-.1-.76-.17-1.2-.69-1.26-1.48-.06-.82,.32-1.42,1.08-1.69,.41-.14,.88-.16,1.32-.16,16.96,0,33.93,0,50.89,0,.35,0,.7,0,1.09,0,0-.39,0-.64,0-.89,0-10.23,0-20.46,0-30.68,0-.2,0-.39,0-.59-.09-1.89-1.46-3.23-3.34-3.26-.95-.01-1.9,.03-2.85-.02-.62-.03-1.02,.17-1.42,.65-4.57,5.61-9.15,11.21-13.77,16.78-.68,.82-1.19,1.56-.69,2.66,.15,.34,.13,.77,.15,1.16,.29,4.43-2.48,7.95-6,8.63-1.62,.31-3.33,.28-4.99,.23-2.47-.08-4.77,.15-6.71,1.94-.93,.86-2.35,.41-2.68-.8-.86-3.16-1.43-6.36-1.04-9.67,.7-6,4.66-9.72,10.64-9.99,.32-.01,.73-.25,.92-.52,1.27-1.83,2.5-3.7,3.74-5.56,1.19-1.78,2.38-3.56,3.69-5.5Zm5.51,9c1.04-1.27,2.03-2.47,3.02-3.68,2.74-3.34,5.5-6.67,8.21-10.04,1.57-1.95,1.04-4.7-1.06-5.93-1.88-1.1-4.1-.54-5.4,1.39-3.13,4.65-6.24,9.31-9.35,13.97-.12,.18-.22,.38-.36,.62,1.63,1.21,3.24,2.41,4.94,3.67Zm-20.79,18.72c1.2-.31,2.28-.73,3.4-.84,1.6-.16,3.23-.1,4.84-.1,1.37,0,2.75,.08,3.96-.72,1.72-1.14,2.47-3.23,2.01-5.47-.15-.74-.45-1.31-1.11-1.76-1.34-.91-2.68-1.83-3.89-2.9-1.03-.91-2.08-1.1-3.37-.84-2.96,.6-5.03,2.16-5.84,5.16-.68,2.51-.44,5.02,0,7.46Zm17.88,40.18c.19-2.05-.37-2.69-2.32-2.69-7.6,0-15.19,0-22.79,0-1.91,0-2.54,.75-2.23,2.69h27.33Zm-11.39-14.37h-4.59c-.65,2.72-1.29,5.42-1.95,8.18h8.48c-.66-2.76-1.3-5.46-1.95-8.18Zm8.52-37.49c1.23-1.51,2.41-2.94,3.62-4.42-1.59-1.18-3.12-2.31-4.71-3.49-1.09,1.62-2.12,3.16-3.18,4.74,1.41,1.05,2.8,2.08,4.26,3.17Z"/>
  <path class="cls-1" d="M69.78,94.56c0,.94-.77,1.7-1.71,1.68-.9-.02-1.63-.76-1.64-1.67-.01-.93,.76-1.73,1.67-1.73,.91,0,1.68,.79,1.68,1.72Z"/>
</svg>