<?xml version="1.0" encoding="UTF-8"?>
<svg id="Capa_11" data-name="Capa 11" xmlns="http://www.w3.org/2000/svg" viewBox="0 0 2930.09 2272.7">
  <defs>
    <style>
      .cls-1 {
        fill: #1b4332;
      }

      .cls-2 {
        fill: #21385e;
      }

      .cls-3 {
        fill: #d6c5a4;
      }

      .cls-4 {
        fill: #d5b169;
      }

      .cls-5 {
        fill: #804315;
      }
    </style>
  </defs>
  <g>
    <path class="cls-2" d="M336.52,1748.73h87.63c29.56,0,51.74,7.94,66.53,23.8,14.78,15.87,22.18,39.13,22.18,69.78v37.32c0,30.66-7.4,53.92-22.18,69.78-14.79,15.87-36.97,23.8-66.53,23.8h-28.13v154.16h-59.5v-378.65Zm87.63,170.39c9.74,0,17.04-2.7,21.91-8.11,4.87-5.41,7.3-14.6,7.3-27.59v-44.9c0-12.98-2.43-22.18-7.3-27.59-4.87-5.41-12.17-8.11-21.91-8.11h-28.13v116.3h28.13Z"/>
    <path class="cls-1" d="M572.37,1748.73h80.6l61.67,378.65h-59.5l-10.82-75.19v1.08h-67.62l-10.82,74.11h-55.17l61.67-378.65Zm64.91,253.15l-26.51-187.16h-1.08l-25.96,187.16h53.55Z"/>
    <path class="cls-5" d="M743.29,1748.73h59.5v324.56h97.91v54.09h-157.41v-378.65Z"/>
    <path class="cls-4" d="M929.37,1748.73h162.28v54.09h-102.78v100.07h81.68v54.09h-81.68v116.3h102.78v54.09h-162.28v-378.65Z"/>
    <path class="cls-3" d="M1144.65,2107.9c-15.51-16.58-23.26-40.03-23.26-70.32v-199.06c0-30.29,7.75-53.73,23.26-70.32,15.5-16.58,37.86-24.88,67.07-24.88s51.57,8.3,67.07,24.88c15.5,16.59,23.26,40.03,23.26,70.32v199.06c0,30.29-7.76,53.74-23.26,70.32-15.51,16.59-37.86,24.88-67.07,24.88s-51.57-8.29-67.07-24.88Zm97.91-66.53v-206.63c0-24.88-10.28-37.32-30.83-37.32s-30.83,12.44-30.83,37.32v206.63c0,24.88,10.28,37.32,30.83,37.32s30.83-12.44,30.83-37.32Z"/>
    <path class="cls-3" d="M1428.63,1748.73h87.63c29.56,0,51.74,7.94,66.53,23.8,14.78,15.87,22.18,39.13,22.18,69.78v37.32c0,30.66-7.4,53.92-22.18,69.78-14.79,15.87-36.97,23.8-66.53,23.8h-28.13v154.16h-59.5v-378.65Zm87.63,170.39c9.74,0,17.04-2.7,21.91-8.11,4.87-5.41,7.3-14.6,7.3-27.59v-44.9c0-12.98-2.43-22.18-7.3-27.59-4.87-5.41-12.17-8.11-21.91-8.11h-28.13v116.3h28.13Z"/>
    <path class="cls-3" d="M1637.42,1748.73h88.17c30.65,0,53.01,7.12,67.08,21.37,14.06,14.25,21.1,36.16,21.1,65.72v23.26c0,39.31-12.98,64.19-38.95,74.65v1.08c14.42,4.33,24.61,13.17,30.56,26.51,5.95,13.35,8.93,31.2,8.93,53.55v66.53c0,10.82,.35,19.57,1.08,26.23,.72,6.68,2.52,13.25,5.41,19.74h-60.58c-2.16-6.13-3.61-11.9-4.33-17.31-.73-5.41-1.08-15.15-1.08-29.21v-69.24c0-17.31-2.8-29.39-8.38-36.24-5.6-6.85-15.24-10.28-28.94-10.28h-20.56v162.28h-59.5v-378.65Zm81.14,162.28c11.9,0,20.83-3.06,26.78-9.2,5.95-6.13,8.93-16.41,8.93-30.83v-29.21c0-13.7-2.43-23.61-7.3-29.75-4.87-6.13-12.53-9.2-22.99-9.2h-27.05v108.19h21.64Z"/>
    <path class="cls-3" d="M1855.41,1748.73h59.5v378.65h-59.5v-378.65Z"/>
    <path class="cls-3" d="M1959.26,1748.73h74.65l57.88,226.65h1.08v-226.65h53.01v378.65h-61.12l-71.4-276.41h-1.08v276.41h-53.01v-378.65Z"/>
    <path class="cls-3" d="M2236.75,1802.82h-62.21v-54.09h183.91v54.09h-62.21v324.56h-59.5v-324.56Z"/>
    <path class="cls-3" d="M2399.02,2108.17c-14.79-16.41-22.18-39.94-22.18-70.59v-21.64h56.26v25.96c0,24.53,10.28,36.78,30.83,36.78,10.09,0,17.76-2.98,22.99-8.93,5.22-5.95,7.84-15.59,7.84-28.94,0-15.86-3.61-29.84-10.82-41.92-7.22-12.08-20.56-26.59-40.03-43.54-24.53-21.64-41.65-41.2-51.39-58.69-9.74-17.49-14.6-37.23-14.6-59.23,0-29.93,7.57-53.1,22.72-69.51,15.15-16.41,37.14-24.61,65.99-24.61s50.04,8.21,64.64,24.61c14.6,16.41,21.91,39.94,21.91,70.59v15.69h-56.26v-19.47c0-12.98-2.53-22.45-7.57-28.4-5.05-5.95-12.44-8.93-22.18-8.93-19.84,0-29.75,12.09-29.75,36.24,0,13.71,3.69,26.51,11.09,38.41,7.39,11.9,20.83,26.33,40.3,43.27,24.88,21.64,42.01,41.3,51.39,58.96,9.37,17.67,14.06,38.41,14.06,62.21,0,31.02-7.67,54.82-22.99,71.4-15.33,16.59-37.59,24.88-66.8,24.88s-50.67-8.2-65.45-24.61Z"/>
  </g>
  <rect class="cls-5" x="1477.61" y="1628.79" width="682.72" height="53.82"/>
  <g>
    <path class="cls-2" d="M1523.32,1324.88c-9.56,35.57-38.25,59.09-64.5,57.96-48.01-2.07-66.65-85.74-56.02-94,2.42-1.88,5.3,.96,20.28,4.77,5.97,1.52,22.34,5.6,40.85,5.46,12.14-.09,27.59-.21,45.01-7.27,7.46-3.02,11.42-5.75,14.75-4,6.83,3.6,3.48,22.12-.38,37.09Z"/>
    <path class="cls-2" d="M1617.39,638.43c-10.5,5.54-25.29,12.6-43.68,18.99-11.05,3.84-46.34,15.42-94.93,17.5-41.03,1.75-70.79-4.16-89.28-7.96-46.07-9.47-57.66-20.52-63.61-28.53-9.28-12.51-11.04-26.03-12.34-36.08-.61-4.67-5.63-46.38,12.34-56.02,10.49-5.63,22.68,2.98,39.88,10.44,34.07,14.8,63.45,14.56,102.55,14.24,30.47-.25,69.25-.56,112.99-18.99,18.73-7.89,28.67-15.02,37.03-10.44,17.16,9.4,8.74,57.76-.95,96.85Z"/>
    <path class="cls-2" d="M1607.63,759.54c-9.82,5.18-23.65,11.78-40.84,17.76-10.33,3.59-43.33,14.42-88.77,16.36-38.36,1.64-66.19-3.89-83.48-7.44-43.08-8.85-53.92-19.19-59.48-26.68-8.68-11.7-10.32-24.34-11.54-33.74-.57-4.37-5.26-43.37,11.54-52.38,9.81-5.26,21.21,2.78,37.29,9.77,31.86,13.84,59.33,13.61,95.89,13.32,28.49-.23,64.76-.52,105.65-17.76,17.51-7.38,26.81-14.05,34.63-9.77,16.04,8.79,8.17,54.01-.89,90.56Z"/>
    <path class="cls-2" d="M1590.39,870.59c-8.53,4.5-20.55,10.24-35.48,15.43-8.97,3.12-37.65,12.53-77.12,14.21-33.33,1.42-57.51-3.38-72.53-6.46-37.43-7.69-46.85-16.67-51.67-23.18-7.54-10.16-8.97-21.14-10.03-29.31-.49-3.8-4.57-37.68,10.03-45.51,8.53-4.57,18.43,2.42,32.4,8.49,27.68,12.02,51.55,11.83,83.31,11.57,24.75-.2,56.26-.45,91.79-15.43,15.22-6.41,23.29-12.2,30.08-8.49,13.94,7.63,7.1,46.92-.77,78.68Z"/>
    <path class="cls-2" d="M1580.35,978.98c-7.89,4.16-19,9.46-32.81,14.27-8.3,2.88-34.81,11.58-71.32,13.14-30.82,1.32-53.18-3.12-67.07-5.98-34.61-7.11-43.32-15.41-47.78-21.43-6.97-9.4-8.29-19.55-9.27-27.11-.46-3.51-4.23-34.84,9.27-42.08,7.88-4.23,17.04,2.24,29.96,7.85,25.59,11.12,47.67,10.94,77.04,10.7,22.89-.18,52.03-.42,84.88-14.27,14.07-5.93,21.54-11.29,27.82-7.85,12.89,7.06,6.56,43.39-.71,72.76Z"/>
    <path class="cls-2" d="M1566.33,1070.39c-6.81,3.6-16.41,8.17-28.34,12.32-7.17,2.49-30.07,10-61.59,11.35-26.62,1.14-45.93-2.7-57.92-5.16-29.89-6.14-37.41-13.31-41.27-18.51-6.02-8.12-7.16-16.89-8.01-23.41-.39-3.03-3.65-30.09,8.01-36.35,6.81-3.65,14.72,1.93,25.87,6.78,22.1,9.6,41.17,9.45,66.53,9.24,19.77-.16,44.93-.36,73.31-12.32,12.15-5.12,18.6-9.75,24.03-6.78,11.13,6.1,5.67,37.47-.62,62.84Z"/>
    <path class="cls-2" d="M1547.32,1146.03c-5.53,2.92-13.32,6.63-23,10-5.82,2.02-24.4,8.12-49.99,9.21-21.6,.92-37.28-2.19-47.01-4.19-24.26-4.99-30.36-10.8-33.49-15.02-4.89-6.59-5.81-13.71-6.5-19-.32-2.46-2.96-24.42,6.5-29.5,5.53-2.96,11.94,1.57,21,5.5,17.94,7.79,33.41,7.67,54,7.5,16.04-.13,36.47-.29,59.5-10,9.86-4.16,15.1-7.91,19.5-5.5,9.03,4.95,4.6,30.41-.5,51Z"/>
    <path class="cls-2" d="M1537.37,1209.26c-5.18,2.47-12.49,5.62-21.57,8.47-5.46,1.71-22.89,6.88-46.89,7.81-20.27,.78-34.97-1.85-44.1-3.55-22.76-4.23-28.48-9.16-31.42-12.73-4.59-5.58-5.45-11.61-6.1-16.1-.3-2.08-2.78-20.7,6.1-25,5.18-2.51,11.2,1.33,19.7,4.66,16.83,6.6,31.34,6.5,50.65,6.36,15.05-.11,34.21-.25,55.81-8.47,9.25-3.52,14.16-6.7,18.29-4.66,8.47,4.19,4.32,25.77-.47,43.22Z"/>
    <path class="cls-2" d="M1523.32,1268.24c-4.18,2.12-10.08,4.83-17.4,7.27-4.4,1.47-18.46,5.91-37.82,6.7-16.34,.67-28.2-1.59-35.57-3.05-18.35-3.63-22.97-7.86-25.34-10.93-3.7-4.79-4.4-9.97-4.92-13.82-.24-1.79-2.24-17.76,4.92-21.46,4.18-2.16,9.04,1.14,15.89,4,13.57,5.67,25.28,5.58,40.85,5.45,12.14-.09,27.59-.21,45.01-7.27,7.46-3.02,11.42-5.75,14.75-4,6.83,3.6,3.48,22.12-.38,37.09Z"/>
    <path class="cls-4" d="M1934.63,728.04c-.37,4.46-1.52,10.75-5.67,12.7-11.81,5.57-28.03-33.16-69.82-60.18-39.52-25.56-88.05-31.67-115.01-35.07-10.61-1.34-19.05-1.96-19.05-1.96-16.24,0-27.54-.88-54.48-1.07-25.96-.19-28.45-.58-30.56-3.21-5.04-6.25,.54-14.52,4.65-48.83,.53-4.44,.63-9.59,.81-19.89,.15-8.24-.01-12.14-1.96-16.38-3.19-6.97-8.14-8.24-7.83-9.97,1.02-5.68,56.84-7.64,123.36,9.35,54.56,13.93,92.94,23.73,126.07,58.3,38.22,39.88,47.15,89.47,49.49,116.2Z"/>
    <path class="cls-2" d="M1923.94,854.77c-.36,4.46-1.48,10.75-5.54,12.7-11.54,5.57-27.39-33.16-68.22-60.18-38.62-25.56-86.03-31.67-112.37-35.07-10.37-1.34-18.61-1.96-18.61-1.96-15.87,0-26.9-.88-53.23-1.07-25.37-.19-27.79-.58-29.86-3.21-4.93-6.25,.53-14.52,4.54-48.83,.52-4.44,.61-9.59,.79-19.89,.15-8.24-.01-12.14-1.91-16.38-3.12-6.97-7.96-8.24-7.65-9.97,.99-5.68,55.54-7.64,120.53,9.35,53.31,13.93,90.81,23.73,123.18,58.3,37.34,39.88,46.07,89.47,48.36,116.2Z"/>
    <path class="cls-4" d="M1898.31,969.76c-.34,4.46-1.41,10.75-5.28,12.7-10.99,5.57-26.1-33.16-65.01-60.18-36.8-25.56-81.98-31.67-107.08-35.07-9.88-1.34-17.74-1.96-17.74-1.96-15.12,0-25.64-.88-50.72-1.07-24.17-.19-26.49-.58-28.46-3.21-4.69-6.25,.5-14.52,4.33-48.83,.5-4.44,.58-9.59,.76-19.89,.14-8.24-.01-12.14-1.82-16.38-2.97-6.97-7.58-8.24-7.29-9.97,.95-5.68,52.92-7.64,114.86,9.35,50.8,13.93,86.54,23.73,117.38,58.3,35.58,39.88,43.9,89.47,46.08,116.2Z"/>
    <path class="cls-2" d="M1847.75,1074.24c-.29,4.13-1.21,9.94-4.51,11.75-9.4,5.15-22.32-30.67-55.59-55.66-31.47-23.64-70.11-29.3-91.57-32.44-8.45-1.24-15.17-1.81-15.17-1.81-12.93,0-21.92-.81-43.38-.99-20.67-.17-22.65-.54-24.33-2.96-4.01-5.78,.43-13.43,3.7-45.17,.42-4.11,.5-8.87,.65-18.39,.12-7.62-.01-11.23-1.56-15.15-2.54-6.45-6.48-7.62-6.24-9.22,.81-5.25,45.26-7.06,98.22,8.65,43.44,12.89,74,21.95,100.38,53.92,30.43,36.89,37.54,82.75,39.41,107.47Z"/>
    <path class="cls-4" d="M1785.16,1154.26c-.23,3.56-.94,8.57-3.52,10.13-7.33,4.44-17.41-26.44-43.36-47.98-24.55-20.37-54.69-25.25-71.43-27.96-6.59-1.07-11.83-1.56-11.83-1.56-10.09,0-17.1-.7-33.84-.85-16.13-.15-17.67-.46-18.98-2.56-3.13-4.98,.33-11.58,2.89-38.93,.33-3.54,.39-7.65,.51-15.86,.09-6.57,0-9.68-1.22-13.06-1.98-5.56-5.06-6.57-4.87-7.95,.63-4.52,35.3-6.09,76.62,7.45,33.89,11.11,57.73,18.92,78.3,46.48,23.74,31.79,29.28,71.32,30.74,92.63Z"/>
    <path class="cls-4" d="M1007.22,728.04c.37,4.46,1.52,10.75,5.67,12.7,11.81,5.57,28.03-33.16,69.82-60.18,39.52-25.56,88.05-31.67,115.01-35.07,10.61-1.34,19.05-1.96,19.05-1.96,16.24,0,27.54-.88,54.48-1.07,25.96-.19,28.45-.58,30.56-3.21,5.04-6.25-.54-14.52-4.65-48.83-.53-4.44-.63-9.59-.81-19.89-.15-8.24,.01-12.14,1.96-16.38,3.19-6.97,8.14-8.24,7.83-9.97-1.02-5.68-56.84-7.64-123.36,9.35-54.56,13.93-92.94,23.73-126.07,58.3-38.22,39.88-47.15,89.47-49.49,116.2Z"/>
    <path class="cls-2" d="M1017.9,854.77c.36,4.46,1.48,10.75,5.54,12.7,11.54,5.57,27.39-33.16,68.22-60.18,38.62-25.56,86.03-31.67,112.37-35.07,10.37-1.34,18.61-1.96,18.61-1.96,15.87,0,26.9-.88,53.23-1.07,25.37-.19,27.79-.58,29.86-3.21,4.93-6.25-.53-14.52-4.54-48.83-.52-4.44-.61-9.59-.79-19.89-.15-8.24,.01-12.14,1.91-16.38,3.12-6.97,7.96-8.24,7.65-9.97-.99-5.68-55.54-7.64-120.53,9.35-53.31,13.93-90.81,23.73-123.18,58.3-37.34,39.88-46.07,89.47-48.36,116.2Z"/>
    <path class="cls-4" d="M1043.54,969.76c.34,4.46,1.41,10.75,5.28,12.7,10.99,5.57,26.1-33.16,65.01-60.18,36.8-25.56,81.98-31.67,107.08-35.07,9.88-1.34,17.74-1.96,17.74-1.96,15.12,0,25.64-.88,50.72-1.07,24.17-.19,26.49-.58,28.46-3.21,4.69-6.25-.5-14.52-4.33-48.83-.5-4.44-.58-9.59-.76-19.89-.14-8.24,.01-12.14,1.82-16.38,2.97-6.97,7.58-8.24,7.29-9.97-.95-5.68-52.92-7.64-114.86,9.35-50.8,13.93-86.54,23.73-117.38,58.3-35.58,39.88-43.9,89.47-46.08,116.2Z"/>
    <path class="cls-2" d="M1094.1,1074.24c.29,4.13,1.21,9.94,4.51,11.75,9.4,5.15,22.32-30.67,55.59-55.66,31.47-23.64,70.11-29.3,91.57-32.44,8.45-1.24,15.17-1.81,15.17-1.81,12.93,0,21.92-.81,43.38-.99,20.67-.17,22.65-.54,24.33-2.96,4.01-5.78-.43-13.43-3.7-45.17-.42-4.11-.5-8.87-.65-18.39-.12-7.62,.01-11.23,1.56-15.15,2.54-6.45,6.48-7.62,6.24-9.22-.81-5.25-45.26-7.06-98.22,8.65-43.44,12.89-74,21.95-100.38,53.92-30.43,36.89-37.54,82.75-39.41,107.47Z"/>
    <path class="cls-4" d="M1156.68,1154.26c.23,3.56,.94,8.57,3.52,10.13,7.33,4.44,17.41-26.44,43.36-47.98,24.55-20.37,54.69-25.25,71.43-27.96,6.59-1.07,11.83-1.56,11.83-1.56,10.09,0,17.1-.7,33.84-.85,16.13-.15,17.67-.46,18.98-2.56,3.13-4.98-.33-11.58-2.89-38.93-.33-3.54-.39-7.65-.51-15.86-.09-6.57,0-9.68,1.22-13.06,1.98-5.56,5.06-6.57,4.87-7.95-.63-4.52-35.3-6.09-76.62,7.45-33.89,11.11-57.73,18.92-78.3,46.48-23.74,31.79-29.28,71.32-30.74,92.63Z"/>
    <path class="cls-2" d="M1704.82,1242.01c-.83,2.7-2.29,6.44-4.56,7.17-6.47,2.09-8.62-23.57-24.72-44.92-15.23-20.19-37.6-29.45-50.03-34.59-4.89-2.02-8.85-3.36-8.85-3.36-7.78-1.84-13.07-3.66-25.96-6.82-12.42-3.05-13.55-3.58-14.18-5.43-1.51-4.41,2.37-8.87,9.32-29.52,.9-2.67,1.69-5.83,3.28-12.14,1.27-5.05,1.76-7.47,1.44-10.3-.52-4.65-2.71-5.99-2.31-7.02,1.31-3.38,28.35,1.74,57.77,19.71,24.13,14.75,41.1,25.12,51.96,50.14,12.52,28.86,9.6,60.38,6.84,77.08Z"/>
    <path class="cls-2" d="M1230.3,1237.22c.61,2.76,1.78,6.6,3.99,7.51,6.29,2.59,10.43-22.83,28.14-42.86,16.76-18.95,39.78-26.44,52.57-30.6,5.03-1.64,9.08-2.66,9.08-2.66,7.9-1.23,13.32-2.63,26.41-4.78,12.62-2.08,13.79-2.51,14.56-4.31,1.85-4.28-1.67-9.03-7-30.15-.69-2.74-1.23-5.94-2.32-12.36-.87-5.14-1.17-7.58-.64-10.38,.88-4.59,3.16-5.76,2.85-6.82-1.04-3.47-28.4-.48-59.13,15.16-25.2,12.82-42.93,21.85-55.7,45.94-14.73,27.8-14.27,59.45-12.82,76.32Z"/>
    <path class="cls-4" d="M1639.55,1326.5c-1.1,2.56-2.88,6.06-4.84,6.49-5.57,1.22-3.24-24.4-12.89-47.58-9.13-21.93-25.79-33.99-35.04-40.69-3.64-2.64-6.63-4.47-6.63-4.47-6.02-2.83-10.01-5.32-19.95-10.13-9.58-4.64-10.41-5.3-10.63-7.21-.52-4.55,3.33-8.45,12.25-27.92,1.15-2.52,2.3-5.53,4.59-11.56,1.83-4.82,2.61-7.14,2.81-9.98,.32-4.66-1.24-6.27-.75-7.23,1.6-3.16,22.7,5.42,43.68,27.01,17.21,17.71,29.31,30.17,34.13,56.28,5.56,30.13-1.82,60.86-6.72,77Z"/>
    <path class="cls-4" d="M1297.53,1332.74c1.15,2.56,2.99,6.06,4.97,6.51,5.63,1.28,2.86-24.21,12.21-47.14,8.84-21.68,25.4-33.47,34.61-40.01,3.62-2.58,6.6-4.36,6.6-4.36,6.01-2.74,9.99-5.16,19.91-9.82,9.56-4.49,10.39-5.14,10.58-7.04,.45-4.52-3.49-8.44-12.77-27.91-1.2-2.52-2.4-5.53-4.8-11.55-1.92-4.82-2.74-7.13-2.98-9.95-.4-4.63,1.15-6.21,.64-7.18-1.66-3.16-22.75,5.1-43.52,26.3-17.03,17.39-29.01,29.62-33.44,55.53-5.11,29.88,2.81,60.52,7.99,76.63Z"/>
    <path class="cls-2" d="M991.66,515.46c17.77-55.18,59.27-178.19,182.31-272.51,31.11-23.85,142.84-106.9,305.74-104.45,189.29,2.85,312.56,119.13,349.66,157.86,19.76,24.66,44.97,59.93,68.23,105.53,82.88,162.48,78.21,332.96,67.56,334.94-1.92,.36-3.09-4.96-20.42-45.23-23.45-54.49-35.17-81.73-42.02-91.86-28.82-42.67-78.27-55.95-132.46-70.5-29.68-7.97-76.33-16.68-134.93-11.82,2.32-4.78,4.38-10.02,5.32-12.39,13.81-35.09,15.95-83.86-4.4-161.06-8.5-32.23-22.65-75.96-47.11-125.47-19.98-25.9-25.97-29.58-27.88-28.46-6.26,3.69,32.64,58.4,52.32,144.08,6.72,29.25,18.43,80.2,13.88,143.94-.84,11.84-2.62,29.38-2.23,39.98-81.55,5.27-82.07,23.7-148.38,24.74-67.14,1.05-79.57-17.65-153.63-22.52,.78-10.21-1.21-29.5-2.11-42.2-4.55-63.73,7.16-114.68,13.88-143.94,19.68-85.68,58.58-140.39,52.32-144.08-1.9-1.12-7.9,2.56-27.88,28.46-24.46,49.52-38.61,93.24-47.11,125.47-20.35,77.2-18.21,125.97-4.4,161.06,1.09,2.77,3.71,9.42,6.49,14.72-4.29-.21-8.77-.37-13.47-.48-57.16-1.34-97.64,5.85-108.24,7.83-64.27,12.01-103.94,19.42-136.73,51.27-26.15,25.4-43.39,61.94-72.28,123.2-12.31,26.1-16.25,37.74-19.58,37.03-10.17-2.16-6.46-117.58,27.54-223.13Z"/>
  </g>
  <g>
    <path class="cls-5" d="M2262.01,1538.2c46.89,19.76,95.02-1.6,108.14-8.15,66.7-33.32,95.25-115.03,86.38-173.84-4.88-32.38-17.12-31.73-27.84-84.34-9.73-47.77-2.98-64.69-18.06-94.61-16.76-33.27-45.37-51.78-53.12-56.2-42.13-24.05-63.87-3.15-140.65-17.31-56.17-10.36-60.32-24.45-96.41-21.21-47.83,4.29-80.01,33.79-91.99,42.45-6.24,4.51-56.21,41.94-57.52,106.03-.13,6.13-.38,53.33,33.81,89.49,40.2,42.52,78.23,17.13,131.18,49.29,78.08,47.41,53.13,137.67,126.08,168.41Z"/>
    <path class="cls-5" d="M2240.85,995.33c-6.27,10.7-24.37,41.57-61.51,48.26-24.68,4.44-55.47-2.21-73.11-23.5-29.66-35.81-5.36-92.81,13.65-119.93,28.41-40.53,84.97-71.37,112.61-53.7,14.98,9.58,17.3,30.77,20.59,60.82,2.77,25.35,6.2,56.62-12.23,88.05Z"/>
    <path class="cls-5" d="M2488.2,977.43c-24.51,39.26-47.23,75.22-87.57,79.07-37.27,3.56-77.67-23.06-90.96-57.98-18.19-47.77,20.48-94.93,50.33-131.31,16.85-20.55,48.36-58.96,97.15-64.7,11.92-1.4,39.49-5.88,55.66,10.37,14.01,14.08,11.99,35.96,9.19,62.15-2.3,21.57-6.77,59.1-33.8,102.39Z"/>
    <path class="cls-5" d="M2527.09,1060.17c-40.47,29.28-46.8,45.06-49.15,52.83-9.42,31.15,2.57,70.41,28.56,87.64,40.92,27.13,104.73-5.89,134.49-45.48,37.49-49.87,35.7-129.75,4.47-147.24-26.02-14.57-68.7,16.31-118.37,52.24Z"/>
    <path class="cls-5" d="M2548.58,1278.97c-9.41,7.04-36.59,27.38-38.94,63.09-1.56,23.73,7.97,52.04,29.91,66.4,36.89,24.15,88.02-4.8,111.57-25.6,35.18-31.08,58.23-87.65,38.64-111.81-10.62-13.1-30.83-13.04-59.5-12.94-24.18,.08-54.01,.17-81.68,20.87Z"/>
  </g>
  <path class="cls-1" d="M774.12,811.94c-4.18-2.83-6.52-8.24-10.36-11.76-5.37-4.94-11.15-9.51-17.14-13.67-7.36-5.11-15.79-8.85-22.57-14.58-10.26-8.66-19.64-18.39-29.1-27.96-4.52-4.57-7.89-2.24-11.94,.46-3.84,2.57-2.47,5.51-1.5,8.66,4.02,13.01,8.07,26.01,11.99,39.06,1.51,5.04,.57,9.83-2.62,14.01-10.81,14.17-15.85,30.34-17.55,47.91-2.42,25.02-.11,49.88,1.34,74.81,.47,8.07,2.81,18.6,9.66,29.35,.69,1.08,1.28,1.92,1.63,2.42,10.94-5.49,20.35-8.16,27.04-9.58,18.15-3.85,39.29-3.41,39.29-3.42h0s-21.93,3.67-42.16,10.85c-5.19,1.84-13.16,4.94-22.66,9.85-.87,1.97-1.32,4.94-3.25,7.64-1.55,2.17-2.57,4.99-3.02,7.65-3.51,21.17-2.41,42.22,2.09,63.16,3.62,16.81,9.64,33.15,9.31,50.74-.22,11.94,.24,23.89,.37,35.83,0,.23-.4,.47-.96,1.08-5.59-4.98-11.13-10.01-16.78-14.94-13.18-11.49-23.45-24.59-30.2-40.12-1.15,1.41-2.36,2.83-3.63,4.25-12.94,14.44-26.05,21.83-35.21,26.89-30.65,16.94-62.71,21.2-63.07,19.99-.1-.33,2.16-1.21,5.72-2.71,11.02-4.63,42.22-17.74,64.66-35.04,7.13-5.5,16.84-14.08,26.7-26.99-.25-.99-.61-2.43-1.07-4.16-1.59-5.99-5.86-22.1-12.31-36.6-6.22-13.98-14-27.25-23.29-39.7-9.4-12.61-19.82-24.51-30.4-36.17-9.5-10.47-19.84-20.11-33.64-25.06-4.93-1.77-6.95-6.09-7.89-11.1-1.03-5.47-1.86-11.09-3.79-16.26-9.26-24.77-25.87-44.5-44.88-62.13-29.71-27.55-65.37-43.45-104.84-51.47-3.48-.71-7-2.63-9.86-4.83-12.74-9.82-25.47-19.68-37.73-30.08-4.92-4.17-5.96,2.71-9.29,2.08-.17,1.65-.93,3.53-.41,4.93,5.2,13.79,10.71,27.46,15.89,41.26,1.04,2.77,2.07,6.16,1.41,8.84-4.8,19.59-4.18,39.06,.03,58.62,5.64,26.24,13.99,51.64,23.88,76.53,6.89,17.34,16.34,33.09,31.49,44.7,3.16-5.02,7.07-10.41,11.92-15.82,12.94-14.44,26.05-21.83,35.21-26.89,31.88-17.63,62.9-20.65,63.07-19.99,.12,.45-14.44,2.48-34.46,11.9-22.14,10.41-36.3,22.97-40.23,26.56-14.74,13.46-24.28,27.43-30.25,37.98-.43,2.78-.87,6.93-.65,11.93,.93,20.28,12.07,34.97,17.56,42,29.76,38.14,72.1,80.28,72.1,80.28,12.92,10.09,23.98,22.18,30.46,37.49,5.03,11.89,8.98,24.25,13.37,36.41,.07,.18-.31,.52-.62,1-.52-.05-1.19,.03-1.75-.19-25.55-9.71-50.61-20.47-72.55-37.16-16.29-12.4-33.1-23.72-52.76-30.18-29.95-9.84-59.28-7.76-87.97,4.69-6.16,2.67-11.76,2.84-18.02,.36-11.29-4.48-22.88-8.23-34.22-12.58-5.62-2.16-8.2,2.45-11.16,5.04-1.1,.96,0,6.04,1.57,8.17,4.64,6.33,9.69,12.45,15.18,18.07,8.3,8.49,16.27,16.69,19.12,29.1,4.56,19.89,11.6,39,21.57,56.96,1.83,3.3,2.21,7.4,3.26,11.13,1.75,2.39,3.49,4.78,5.24,7.17,.99,.55,2.05,1,2.94,1.68,25.98,19.78,45.6,33.66,52.49,40,11.89,10.95,31.11,24.65,62.9,35.75,4.29-15.82,10.82-27.54,16.29-35.5,8.05-11.72,18.37-21.98,19.01-21.47,.44,.36-3.63,5.94-5.7,8.95-7.03,10.24-15.48,26.68-21.35,53.72,.29,.65,.8,1.81,1.37,3.3,1.41,3.68,2.13,6.52,2.23,6.9,2.72,10.14,17.78,22.47,17.78,22.47,32.02,26.19,49.56,31.61,70.89,39.87,14.96,5.79,30.33,8.35,46.4,5.02,1.91-.4,5.12,1.3,6.44,3.02,4.91,6.36,9.11,13.27,13.88,19.74,11.81,16.03,26.78,28.28,44.59,37.22,31.9,16,65.9,23.71,101.19,27.53,34.18,3.71,65.06-5.16,93.74-22.63,8.32-5.07,15.13-12.77,22.23-19.67,18.41-17.9,32.63-38.56,36.75-64.36,3.49-21.87,6.11-43.97,7.55-66.06,1.45-22.32-1.78-44.38-11.02-65-4.48-9.99-10.45-19.31-15.86-28.87-3.76-6.62-3.74-13,.15-19.6,1.64-2.79,3.28-5.94,3.62-9.07,1.33-12.06,3.02-24.18,2.95-36.27-.14-24.47-7.1-47.62-15.73-70.3-6.51-17.13-15.17-32.84-29.31-44.96-.92,.88-2.43,2.26-4.4,3.82-26.81,21.09-64.73,14.07-64.83,12.15-.08-1.6,25.93,.71,56.91-15.95,3.83-2.06,7.02-4.02,9.47-5.62,.16-.69,.28-1.81,.76-3.06,1.8-4.75,3.67-9.53,4.85-14.46,5.13-21.3,2.62-42.45-2-63.46-3.29-14.93-10.09-28.25-20.98-38.98-5.68-5.59-7.7-11.08-5.79-18.87,3.56-14.53,1.98-28.87-2.13-43.26-5.57-19.5-18.94-34.72-27.74-52.45-3.34-6.73-8.01-13.28-14.88-17.92Z"/>
  <rect class="cls-2" x="113.2" y="1628.79" width="682.72" height="53.82"/>
  <rect class="cls-1" x="794.89" y="1628.79" width="682.72" height="53.82"/>
  <rect class="cls-4" x="2160.33" y="1628.79" width="682.72" height="53.82"/>
</svg>