<?xml version="1.0" encoding="UTF-8"?>
<svg id="Capa_1" data-name="Capa 1" xmlns="http://www.w3.org/2000/svg" viewBox="0 0 1082 652">
  <defs>
    <style>
      .cls-1 {
        fill: #1a4331;
      }

      .cls-2 {
        fill: #20385f;
      }

      .cls-3 {
        fill: #d5b069;
      }

      .cls-4 {
        fill: #804315;
      }
    </style>
  </defs>
  <g>
    <path class="cls-2" d="M563.53,538.52c-3.99,14.83-15.95,24.64-26.9,24.17-20.02-.86-27.8-35.76-23.36-39.2,1.01-.78,2.21,.4,8.46,1.99,2.49,.63,9.32,2.34,17.04,2.28,5.06-.04,11.51-.09,18.77-3.03,3.11-1.26,4.76-2.4,6.15-1.67,2.85,1.5,1.45,9.23-.16,15.47Z"/>
    <path class="cls-2" d="M602.77,252.22c-4.38,2.31-10.55,5.25-18.22,7.92-4.61,1.6-19.33,6.43-39.59,7.3-17.11,.73-29.52-1.73-37.24-3.32-19.22-3.95-24.05-8.56-26.53-11.9-3.87-5.22-4.6-10.86-5.15-15.05-.25-1.95-2.35-19.34,5.15-23.36,4.38-2.35,9.46,1.24,16.63,4.36,14.21,6.17,26.46,6.07,42.77,5.94,12.71-.1,28.88-.23,47.12-7.92,7.81-3.29,11.96-6.27,15.44-4.36,7.16,3.92,3.64,24.09-.4,40.39Z"/>
    <path class="cls-2" d="M598.69,302.73c-4.09,2.16-9.86,4.91-17.03,7.41-4.31,1.5-18.07,6.01-37.02,6.82-16,.68-27.61-1.62-34.82-3.1-17.97-3.69-22.49-8-24.81-11.13-3.62-4.88-4.3-10.15-4.81-14.07-.24-1.82-2.19-18.09,4.81-21.85,4.09-2.2,8.85,1.16,15.55,4.07,13.29,5.77,24.74,5.68,39.99,5.55,11.88-.1,27.01-.22,44.06-7.41,7.3-3.08,11.18-5.86,14.44-4.07,6.69,3.66,3.41,22.52-.37,37.77Z"/>
    <path class="cls-2" d="M591.5,349.05c-3.56,1.88-8.57,4.27-14.8,6.43-3.74,1.3-15.7,5.22-32.17,5.93-13.9,.59-23.98-1.41-30.25-2.7-15.61-3.21-19.54-6.95-21.55-9.67-3.15-4.24-3.74-8.82-4.18-12.22-.21-1.58-1.91-15.71,4.18-18.98,3.56-1.91,7.69,1.01,13.51,3.54,11.54,5.01,21.5,4.93,34.74,4.83,10.32-.08,23.46-.19,38.28-6.43,6.35-2.67,9.71-5.09,12.55-3.54,5.81,3.18,2.96,19.57-.32,32.81Z"/>
    <path class="cls-2" d="M587.32,394.25c-3.29,1.74-7.92,3.95-13.68,5.95-3.46,1.2-14.52,4.83-29.74,5.48-12.85,.55-22.18-1.3-27.97-2.49-14.44-2.97-18.07-6.43-19.93-8.94-2.91-3.92-3.46-8.15-3.87-11.3-.19-1.46-1.76-14.53,3.87-17.55,3.29-1.76,7.11,.93,12.49,3.27,10.67,4.64,19.88,4.56,32.13,4.46,9.55-.08,21.7-.18,35.4-5.95,5.87-2.47,8.98-4.71,11.6-3.27,5.38,2.94,2.74,18.1-.3,30.34Z"/>
    <path class="cls-2" d="M581.47,432.38c-2.84,1.5-6.84,3.41-11.82,5.14-2.99,1.04-12.54,4.17-25.69,4.73-11.1,.47-19.15-1.12-24.16-2.15-12.47-2.56-15.6-5.55-17.21-7.72-2.51-3.39-2.99-7.04-3.34-9.76-.16-1.26-1.52-12.55,3.34-15.16,2.84-1.52,6.14,.81,10.79,2.83,9.22,4,17.17,3.94,27.75,3.85,8.24-.07,18.74-.15,30.57-5.14,5.07-2.14,7.76-4.07,10.02-2.83,4.64,2.54,2.36,15.63-.26,26.21Z"/>
    <path class="cls-2" d="M573.54,463.92c-2.31,1.22-5.55,2.77-9.59,4.17-2.43,.84-10.18,3.39-20.85,3.84-9.01,.38-15.55-.91-19.61-1.75-10.12-2.08-12.66-4.51-13.97-6.27-2.04-2.75-2.42-5.72-2.71-7.92-.13-1.03-1.24-10.19,2.71-12.3,2.3-1.24,4.98,.65,8.76,2.29,7.48,3.25,13.93,3.2,22.52,3.13,6.69-.05,15.21-.12,24.81-4.17,4.11-1.73,6.3-3.3,8.13-2.29,3.77,2.06,1.92,12.68-.21,21.27Z"/>
    <path class="cls-2" d="M569.39,490.3c-2.16,1.03-5.21,2.34-9,3.53-2.28,.71-9.55,2.87-19.56,3.26-8.45,.33-14.58-.77-18.39-1.48-9.49-1.76-11.88-3.82-13.1-5.31-1.91-2.33-2.27-4.84-2.54-6.72-.12-.87-1.16-8.63,2.54-10.43,2.16-1.05,4.67,.55,8.22,1.94,7.02,2.75,13.07,2.71,21.13,2.65,6.28-.05,14.27-.1,23.28-3.53,3.86-1.47,5.91-2.8,7.63-1.94,3.53,1.75,1.8,10.75-.2,18.02Z"/>
    <path class="cls-2" d="M563.53,514.89c-1.74,.89-4.2,2.01-7.26,3.03-1.84,.61-7.7,2.46-15.77,2.79-6.82,.28-11.76-.66-14.83-1.27-7.66-1.51-9.58-3.28-10.57-4.56-1.54-2-1.83-4.16-2.05-5.76-.1-.75-.93-7.41,2.05-8.95,1.74-.9,3.77,.48,6.63,1.67,5.66,2.36,10.54,2.33,17.04,2.28,5.06-.04,11.51-.09,18.77-3.03,3.11-1.26,4.76-2.4,6.15-1.67,2.85,1.5,1.45,9.23-.16,15.47Z"/>
    <path class="cls-3" d="M735.07,289.6c-.15,1.86-.63,4.48-2.36,5.3-4.92,2.32-11.69-13.83-29.12-25.1-16.48-10.66-36.72-13.21-47.97-14.63-4.42-.56-7.94-.82-7.94-.82-6.77,0-11.48-.37-22.72-.45-10.83-.08-11.86-.24-12.75-1.34-2.1-2.6,.22-6.06,1.94-20.37,.22-1.85,.26-4,.34-8.29,.06-3.44,0-5.06-.82-6.83-1.33-2.91-3.4-3.43-3.27-4.16,.42-2.37,23.71-3.18,51.45,3.9,22.76,5.81,38.76,9.9,52.58,24.32,15.94,16.63,19.66,37.31,20.64,48.46Z"/>
    <path class="cls-2" d="M730.62,342.45c-.15,1.86-.62,4.48-2.31,5.3-4.81,2.32-11.42-13.83-28.45-25.1-16.11-10.66-35.88-13.21-46.87-14.63-4.32-.56-7.76-.82-7.76-.82-6.62,0-11.22-.37-22.2-.45-10.58-.08-11.59-.24-12.45-1.34-2.05-2.6,.22-6.06,1.89-20.37,.22-1.85,.26-4,.33-8.29,.06-3.44,0-5.06-.8-6.83-1.3-2.91-3.32-3.43-3.19-4.16,.41-2.37,23.16-3.18,50.27,3.9,22.23,5.81,37.87,9.9,51.37,24.32,15.57,16.63,19.21,37.31,20.17,48.46Z"/>
    <path class="cls-3" d="M719.93,390.41c-.14,1.86-.59,4.48-2.2,5.3-4.58,2.32-10.89-13.83-27.11-25.1-15.35-10.66-34.19-13.21-44.66-14.63-4.12-.56-7.4-.82-7.4-.82-6.31,0-10.69-.37-21.16-.45-10.08-.08-11.05-.24-11.87-1.34-1.96-2.6,.21-6.06,1.8-20.37,.21-1.85,.24-4,.32-8.29,.06-3.44,0-5.06-.76-6.83-1.24-2.91-3.16-3.43-3.04-4.16,.39-2.37,22.07-3.18,47.9,3.9,21.19,5.81,36.09,9.9,48.95,24.32,14.84,16.63,18.31,37.31,19.22,48.46Z"/>
    <path class="cls-2" d="M698.84,433.98c-.12,1.72-.5,4.14-1.88,4.9-3.92,2.15-9.31-12.79-23.18-23.21-13.12-9.86-29.24-12.22-38.19-13.53-3.52-.52-6.33-.76-6.33-.76-5.39,0-9.14-.34-18.09-.41-8.62-.07-9.45-.22-10.15-1.24-1.67-2.41,.18-5.6,1.54-18.84,.18-1.71,.21-3.7,.27-7.67,.05-3.18,0-4.68-.65-6.32-1.06-2.69-2.7-3.18-2.6-3.85,.34-2.19,18.87-2.95,40.96,3.61,18.12,5.37,30.86,9.15,41.86,22.49,12.69,15.38,15.66,34.51,16.44,44.82Z"/>
    <path class="cls-3" d="M672.74,467.36c-.1,1.48-.39,3.57-1.47,4.22-3.06,1.85-7.26-11.03-18.09-20.01-10.24-8.5-22.81-10.53-29.79-11.66-2.75-.44-4.93-.65-4.93-.65-4.21,0-7.13-.29-14.11-.36-6.73-.06-7.37-.19-7.92-1.07-1.31-2.08,.14-4.83,1.2-16.24,.14-1.48,.16-3.19,.21-6.61,.04-2.74,0-4.04-.51-5.45-.83-2.32-2.11-2.74-2.03-3.31,.26-1.89,14.72-2.54,31.95,3.11,14.13,4.63,24.08,7.89,32.66,19.38,9.9,13.26,12.21,29.75,12.82,38.63Z"/>
    <path class="cls-3" d="M348.29,289.6c.15,1.86,.63,4.48,2.36,5.3,4.92,2.32,11.69-13.83,29.12-25.1,16.48-10.66,36.72-13.21,47.97-14.63,4.42-.56,7.94-.82,7.94-.82,6.77,0,11.48-.37,22.72-.45,10.83-.08,11.86-.24,12.75-1.34,2.1-2.6-.22-6.06-1.94-20.37-.22-1.85-.26-4-.34-8.29-.06-3.44,0-5.06,.82-6.83,1.33-2.91,3.4-3.43,3.27-4.16-.42-2.37-23.71-3.18-51.45,3.9-22.76,5.81-38.76,9.9-52.58,24.32-15.94,16.63-19.66,37.31-20.64,48.46Z"/>
    <path class="cls-2" d="M352.74,342.45c.15,1.86,.62,4.48,2.31,5.3,4.81,2.32,11.42-13.83,28.45-25.1,16.11-10.66,35.88-13.21,46.87-14.63,4.32-.56,7.76-.82,7.76-.82,6.62,0,11.22-.37,22.2-.45,10.58-.08,11.59-.24,12.45-1.34,2.05-2.6-.22-6.06-1.89-20.37-.22-1.85-.26-4-.33-8.29-.06-3.44,0-5.06,.8-6.83,1.3-2.91,3.32-3.43,3.19-4.16-.41-2.37-23.16-3.18-50.27,3.9-22.23,5.81-37.87,9.9-51.37,24.32-15.57,16.63-19.21,37.31-20.17,48.46Z"/>
    <path class="cls-3" d="M363.43,390.41c.14,1.86,.59,4.48,2.2,5.3,4.58,2.32,10.89-13.83,27.11-25.1,15.35-10.66,34.19-13.21,44.66-14.63,4.12-.56,7.4-.82,7.4-.82,6.31,0,10.69-.37,21.16-.45,10.08-.08,11.05-.24,11.87-1.34,1.96-2.6-.21-6.06-1.8-20.37-.21-1.85-.24-4-.32-8.29-.06-3.44,0-5.06,.76-6.83,1.24-2.91,3.16-3.43,3.04-4.16-.39-2.37-22.07-3.18-47.9,3.9-21.19,5.81-36.09,9.9-48.95,24.32-14.84,16.63-18.31,37.31-19.22,48.46Z"/>
    <path class="cls-2" d="M384.52,433.98c.12,1.72,.5,4.14,1.88,4.9,3.92,2.15,9.31-12.79,23.18-23.21,13.12-9.86,29.24-12.22,38.19-13.53,3.52-.52,6.33-.76,6.33-.76,5.39,0,9.14-.34,18.09-.41,8.62-.07,9.45-.22,10.15-1.24,1.67-2.41-.18-5.6-1.54-18.84-.18-1.71-.21-3.7-.27-7.67-.05-3.18,0-4.68,.65-6.32,1.06-2.69,2.7-3.18,2.6-3.85-.34-2.19-18.87-2.95-40.96,3.61-18.12,5.37-30.86,9.15-41.86,22.49-12.69,15.38-15.66,34.51-16.44,44.82Z"/>
    <path class="cls-3" d="M410.62,467.36c.1,1.48,.39,3.57,1.47,4.22,3.06,1.85,7.26-11.03,18.09-20.01,10.24-8.5,22.81-10.53,29.79-11.66,2.75-.44,4.93-.65,4.93-.65,4.21,0,7.13-.29,14.11-.36,6.73-.06,7.37-.19,7.92-1.07,1.31-2.08-.14-4.83-1.2-16.24-.14-1.48-.16-3.19-.21-6.61-.04-2.74,0-4.04,.51-5.45,.83-2.32,2.11-2.74,2.03-3.31-.26-1.89-14.72-2.54-31.95,3.11-14.13,4.63-24.08,7.89-32.66,19.38-9.9,13.26-12.21,29.75-12.82,38.63Z"/>
    <path class="cls-2" d="M639.23,503.96c-.34,1.13-.95,2.69-1.9,2.99-2.7,.87-3.59-9.83-10.31-18.74-6.35-8.42-15.68-12.28-20.87-14.43-2.04-.84-3.69-1.4-3.69-1.4-3.25-.77-5.45-1.52-10.83-2.85-5.18-1.27-5.65-1.49-5.92-2.27-.63-1.84,.99-3.7,3.89-12.31,.38-1.11,.71-2.43,1.37-5.06,.53-2.11,.73-3.11,.6-4.29-.22-1.94-1.13-2.5-.96-2.93,.55-1.41,11.82,.72,24.09,8.22,10.06,6.15,17.14,10.48,21.67,20.91,5.22,12.04,4,25.18,2.85,32.15Z"/>
    <path class="cls-2" d="M441.33,501.96c.26,1.15,.74,2.75,1.66,3.13,2.62,1.08,4.35-9.52,11.74-17.88,6.99-7.9,16.59-11.03,21.92-12.76,2.1-.68,3.79-1.11,3.79-1.11,3.3-.51,5.55-1.1,11.01-1.99,5.26-.87,5.75-1.05,6.07-1.8,.77-1.79-.7-3.77-2.92-12.57-.29-1.14-.51-2.48-.97-5.16-.36-2.14-.49-3.16-.26-4.33,.37-1.92,1.32-2.4,1.19-2.84-.44-1.45-11.85-.2-24.66,6.32-10.51,5.35-17.9,9.11-23.23,19.16-6.14,11.59-5.95,24.79-5.35,31.83Z"/>
    <path class="cls-3" d="M612.01,539.19c-.46,1.07-1.2,2.53-2.02,2.71-2.32,.51-1.35-10.18-5.38-19.84-3.81-9.14-10.76-14.17-14.62-16.97-1.52-1.1-2.77-1.87-2.77-1.87-2.51-1.18-4.18-2.22-8.32-4.22-3.99-1.93-4.34-2.21-4.43-3.01-.22-1.9,1.39-3.52,5.11-11.65,.48-1.05,.96-2.31,1.91-4.82,.76-2.01,1.09-2.98,1.17-4.16,.13-1.94-.52-2.61-.31-3.02,.67-1.32,9.47,2.26,18.22,11.26,7.18,7.39,12.23,12.58,14.24,23.47,2.32,12.57-.76,25.38-2.8,32.11Z"/>
    <path class="cls-3" d="M469.36,541.8c.48,1.07,1.25,2.53,2.07,2.71,2.35,.53,1.19-10.1,5.09-19.66,3.68-9.04,10.59-13.96,14.43-16.69,1.51-1.07,2.75-1.82,2.75-1.82,2.51-1.14,4.17-2.15,8.3-4.09,3.99-1.87,4.33-2.14,4.41-2.94,.19-1.89-1.45-3.52-5.33-11.64-.5-1.05-1-2.31-2-4.82-.8-2.01-1.14-2.98-1.24-4.15-.17-1.93,.48-2.59,.27-2.99-.69-1.32-9.49,2.13-18.15,10.97-7.1,7.25-12.1,12.36-13.95,23.16-2.13,12.46,1.17,25.24,3.33,31.96Z"/>
    <path class="cls-2" d="M341.8,200.94c7.41-23.01,24.72-74.32,76.03-113.65,12.97-9.95,59.57-44.59,127.51-43.56,78.95,1.19,130.36,49.68,145.83,65.84,8.24,10.29,18.75,24.99,28.45,44.01,34.57,67.76,32.62,138.87,28.18,139.69-.8,.15-1.29-2.07-8.52-18.86-9.78-22.72-14.67-34.09-17.52-38.31-12.02-17.8-32.65-23.33-55.24-29.4-12.38-3.32-31.83-6.95-56.27-4.93,.97-2,1.83-4.18,2.22-5.17,5.76-14.64,6.65-34.97-1.83-67.17-3.54-13.44-9.45-31.68-19.65-52.33-8.33-10.8-10.83-12.34-11.63-11.87-2.61,1.54,13.61,24.36,21.82,60.09,2.8,12.2,7.68,33.45,5.79,60.03-.35,4.94-1.09,12.25-.93,16.67-34.01,2.2-34.23,9.89-61.88,10.32-28,.44-33.19-7.36-64.07-9.39,.32-4.26-.5-12.3-.88-17.6-1.9-26.58,2.99-47.83,5.79-60.03,8.21-35.73,24.43-58.55,21.82-60.09-.79-.47-3.29,1.07-11.63,11.87-10.2,20.65-16.1,38.89-19.65,52.33-8.49,32.2-7.6,52.54-1.83,67.17,.45,1.15,1.55,3.93,2.71,6.14-1.79-.09-3.66-.15-5.62-.2-23.84-.56-40.72,2.44-45.14,3.27-26.81,5.01-43.35,8.1-57.02,21.38-10.91,10.59-18.09,25.83-30.15,51.38-5.13,10.89-6.78,15.74-8.17,15.44-4.24-.9-2.69-49.04,11.48-93.06Z"/>
  </g>
  <g>
    <path class="cls-4" d="M871.61,627.48c19.56,8.24,39.63-.67,45.1-3.4,27.82-13.9,39.72-47.97,36.03-72.5-2.03-13.51-7.14-13.23-11.61-35.18-4.06-19.92-1.24-26.98-7.53-39.46-6.99-13.88-18.92-21.6-22.15-23.44-17.57-10.03-26.64-1.31-58.66-7.22-23.43-4.32-25.16-10.2-40.21-8.85-19.95,1.79-33.37,14.09-38.36,17.7-2.6,1.88-23.44,17.49-23.99,44.22-.05,2.56-.16,22.24,14.1,37.32,16.77,17.74,32.63,7.14,54.71,20.56,32.56,19.77,22.16,57.42,52.58,70.24Z"/>
    <path class="cls-4" d="M862.79,401.08c-2.61,4.46-10.16,17.34-25.65,20.13-10.29,1.85-23.14-.92-30.49-9.8-12.37-14.93-2.24-38.71,5.69-50.02,11.85-16.9,35.44-29.77,46.96-22.4,6.25,4,7.22,12.83,8.59,25.37,1.16,10.57,2.58,23.61-5.1,36.72Z"/>
    <path class="cls-4" d="M965.95,393.61c-10.22,16.38-19.7,31.37-36.52,32.98-15.54,1.48-32.39-9.62-37.94-24.18-7.59-19.92,8.54-39.59,20.99-54.77,7.03-8.57,20.17-24.59,40.52-26.98,4.97-.58,16.47-2.45,23.21,4.33,5.84,5.87,5,15,3.83,25.92-.96,9-2.82,24.65-14.1,42.7Z"/>
    <path class="cls-4" d="M982.17,428.12c-16.88,12.21-19.52,18.79-20.5,22.03-3.93,12.99,1.07,29.36,11.91,36.55,17.07,11.32,43.68-2.46,56.09-18.97,15.63-20.8,14.89-54.11,1.86-61.41-10.85-6.08-28.65,6.8-49.37,21.79Z"/>
    <path class="cls-4" d="M991.13,519.37c-3.93,2.94-15.26,11.42-16.24,26.31-.65,9.89,3.33,21.7,12.47,27.69,15.39,10.07,36.71-2,46.53-10.68,14.67-12.96,24.29-36.56,16.12-46.63-4.43-5.46-12.86-5.44-24.82-5.4-10.08,.03-22.52,.07-34.06,8.71Z"/>
  </g>
  <path class="cls-1" d="M251.07,324.59c-1.74-1.18-2.72-3.44-4.32-4.91-2.24-2.06-4.65-3.97-7.15-5.7-3.07-2.13-6.58-3.69-9.41-6.08-4.28-3.61-8.19-7.67-12.14-11.66-1.89-1.91-3.29-.94-4.98,.19-1.6,1.07-1.03,2.3-.63,3.61,1.68,5.43,3.37,10.85,5,16.29,.63,2.1,.24,4.1-1.09,5.84-4.51,5.91-6.61,12.65-7.32,19.98-1.01,10.43-.05,20.8,.56,31.2,.2,3.37,1.17,7.76,4.03,12.24,.29,.45,.53,.8,.68,1.01,4.56-2.29,8.49-3.4,11.28-4,7.57-1.61,16.38-1.42,16.39-1.42h0s-9.15,1.53-17.58,4.53c-2.17,.77-5.49,2.06-9.45,4.11-.36,.82-.55,2.06-1.35,3.19-.65,.91-1.07,2.08-1.26,3.19-1.46,8.83-1.01,17.61,.87,26.34,1.51,7.01,4.02,13.83,3.88,21.16-.09,4.98,.1,9.96,.15,14.94,0,.1-.17,.2-.4,.45-2.33-2.08-4.64-4.18-7-6.23-5.5-4.79-9.78-10.25-12.59-16.73-.48,.59-.98,1.18-1.51,1.77-5.4,6.02-10.86,9.1-14.68,11.22-12.78,7.07-26.15,8.84-26.3,8.34-.04-.14,.9-.51,2.39-1.13,4.6-1.93,17.61-7.4,26.97-14.62,2.97-2.29,7.02-5.87,11.14-11.26-.1-.41-.26-1.01-.45-1.73-.66-2.5-2.44-9.22-5.13-15.26-2.59-5.83-5.84-11.37-9.71-16.56-3.92-5.26-8.27-10.22-12.68-15.09-3.96-4.37-8.27-8.39-14.03-10.45-2.06-.74-2.9-2.54-3.29-4.63-.43-2.28-.77-4.62-1.58-6.78-3.86-10.33-10.79-18.56-18.72-25.91-12.39-11.49-27.26-18.12-43.73-21.46-1.45-.3-2.92-1.1-4.11-2.01-5.31-4.09-10.62-8.21-15.73-12.54-2.05-1.74-2.49,1.13-3.88,.87-.07,.69-.39,1.47-.17,2.05,2.17,5.75,4.47,11.45,6.63,17.21,.43,1.15,.86,2.57,.59,3.69-2,8.17-1.74,16.29,.01,24.45,2.35,10.94,5.84,21.54,9.96,31.92,2.88,7.23,6.82,13.8,13.13,18.64,1.32-2.09,2.95-4.34,4.97-6.6,5.4-6.02,10.86-9.1,14.68-11.22,13.3-7.35,26.23-8.61,26.3-8.34,.05,.19-6.02,1.03-14.37,4.96-9.23,4.34-15.14,9.58-16.78,11.08-6.15,5.61-10.12,11.44-12.62,15.84-.18,1.16-.36,2.89-.27,4.97,.39,8.46,5.03,14.58,7.32,17.52,12.41,15.91,30.07,33.48,30.07,33.48,5.39,4.21,10,9.25,12.7,15.64,2.1,4.96,3.74,10.11,5.58,15.18,.03,.08-.13,.22-.26,.42-.22-.02-.5,.01-.73-.08-10.66-4.05-21.11-8.54-30.26-15.5-6.79-5.17-13.81-9.89-22.01-12.59-12.49-4.1-24.72-3.24-36.69,1.95-2.57,1.12-4.91,1.19-7.51,.15-4.71-1.87-9.54-3.43-14.27-5.25-2.34-.9-3.42,1.02-4.66,2.1-.46,.4,0,2.52,.65,3.41,1.94,2.64,4.04,5.19,6.33,7.54,3.46,3.54,6.78,6.96,7.97,12.13,1.9,8.29,4.84,16.26,9,23.75,.76,1.37,.92,3.08,1.36,4.64l2.18,2.99c.41,.23,.86,.42,1.23,.7,10.84,8.25,19.02,14.04,21.89,16.68,4.96,4.57,12.98,10.28,26.23,14.91,1.79-6.6,4.51-11.48,6.79-14.81,3.36-4.89,7.66-9.17,7.93-8.95,.18,.15-1.52,2.48-2.38,3.73-2.93,4.27-6.46,11.13-8.91,22.41,.12,.27,.33,.76,.57,1.37,.59,1.53,.89,2.72,.93,2.88,1.13,4.23,7.42,9.37,7.42,9.37,13.35,10.92,20.67,13.18,29.57,16.63,6.24,2.41,12.65,3.48,19.35,2.09,.8-.17,2.14,.54,2.69,1.26,2.05,2.65,3.8,5.53,5.79,8.23,4.92,6.69,11.17,11.8,18.6,15.52,13.3,6.67,27.48,9.89,42.2,11.48,14.26,1.55,27.14-2.15,39.1-9.44,3.47-2.11,6.31-5.33,9.27-8.21,7.68-7.46,13.61-16.08,15.33-26.84,1.46-9.12,2.55-18.34,3.15-27.55,.61-9.31-.74-18.51-4.6-27.11-1.87-4.17-4.36-8.06-6.62-12.04-1.57-2.76-1.56-5.42,.06-8.17,.69-1.16,1.37-2.48,1.51-3.78,.55-5.03,1.26-10.08,1.23-15.12-.06-10.2-2.96-19.86-6.56-29.32-2.72-7.15-6.33-13.7-12.22-18.75-.38,.36-1.01,.94-1.84,1.59-11.18,8.8-27,5.87-27.04,5.07-.03-.67,10.82,.29,23.74-6.65,1.6-.86,2.93-1.68,3.95-2.34,.07-.29,.12-.75,.32-1.28,.75-1.98,1.53-3.98,2.02-6.03,2.14-8.89,1.09-17.71-.84-26.47-1.37-6.23-4.21-11.78-8.75-16.26-2.37-2.33-3.21-4.62-2.42-7.87,1.48-6.06,.82-12.04-.89-18.04-2.32-8.13-7.9-14.48-11.57-21.87-1.39-2.81-3.34-5.54-6.21-7.48Z"/>
</svg>