<?xml version="1.0" encoding="UTF-8"?>
<svg id="Capa_11" data-name="Capa 11" xmlns="http://www.w3.org/2000/svg" viewBox="0 0 4445.22 1527.65">
  <defs>
    <style>
      .cls-1 {
        fill: #1b4332;
      }

      .cls-2 {
        fill: #21385e;
      }

      .cls-3 {
        fill: #d6c5a4;
      }

      .cls-4 {
        fill: #d5b169;
      }

      .cls-5 {
        fill: #804315;
      }
    </style>
  </defs>
  <g>
    <path class="cls-2" d="M668.54,517.83h123.38c41.63,0,72.85,11.17,93.68,33.51,20.81,22.35,31.23,55.1,31.23,98.25v52.55c0,43.16-10.41,75.91-31.23,98.25-20.83,22.35-52.05,33.51-93.68,33.51h-39.6v217.06h-83.78V517.83Zm123.38,239.91c13.71,0,23.99-3.81,30.85-11.42s10.28-20.56,10.28-38.84v-63.22c0-18.28-3.43-31.23-10.28-38.84s-17.14-11.42-30.85-11.42h-39.6v163.75h39.6Z"/>
    <path class="cls-1" d="M1000.61,517.83h113.48l86.83,533.14h-83.78l-15.23-105.87v1.52h-95.2l-15.23,104.34h-77.69l86.83-533.14Zm91.4,356.44l-37.32-263.52h-1.52l-36.56,263.52h75.4Z"/>
    <path class="cls-5" d="M1241.27,517.83h83.78v456.98h137.86v76.16h-221.63V517.83Z"/>
    <path class="cls-4" d="M1503.27,517.83h228.49v76.16h-144.71v140.9h115.01v76.16h-115.01v163.75h144.71v76.16h-228.49V517.83Z"/>
    <path class="cls-3" d="M1806.39,1023.56c-21.84-23.35-32.75-56.36-32.75-99.01v-280.28c0-42.65,10.91-75.65,32.75-99.01,21.83-23.35,53.31-35.04,94.44-35.04s72.6,11.69,94.44,35.04c21.83,23.36,32.75,56.36,32.75,99.01v280.28c0,42.65-10.92,75.66-32.75,99.01-21.84,23.36-53.31,35.03-94.44,35.03s-72.62-11.67-94.44-35.03Zm137.85-93.68v-290.94c0-35.04-14.47-52.55-43.41-52.55s-43.41,17.52-43.41,52.55v290.94c0,35.03,14.47,52.55,43.41,52.55s43.41-17.52,43.41-52.55Z"/>
    <path class="cls-3" d="M2206.23,517.83h123.38c41.63,0,72.85,11.17,93.68,33.51,20.81,22.35,31.23,55.1,31.23,98.25v52.55c0,43.16-10.41,75.91-31.23,98.25-20.83,22.35-52.05,33.51-93.68,33.51h-39.6v217.06h-83.78V517.83Zm123.38,239.91c13.71,0,23.99-3.81,30.85-11.42s10.28-20.56,10.28-38.84v-63.22c0-18.28-3.43-31.23-10.28-38.84s-17.14-11.42-30.85-11.42h-39.6v163.75h39.6Z"/>
    <path class="cls-3" d="M2500.21,517.83h124.15c43.15,0,74.64,10.03,94.44,30.08,19.8,20.06,29.7,50.91,29.7,92.54v32.75c0,55.35-18.28,90.38-54.84,105.1v1.52c20.3,6.09,34.65,18.54,43.03,37.32,8.38,18.79,12.57,43.92,12.57,75.4v93.68c0,15.23,.5,27.55,1.52,36.94,1.01,9.4,3.55,18.66,7.62,27.8h-85.3c-3.05-8.63-5.08-16.76-6.09-24.37-1.02-7.62-1.52-21.33-1.52-41.13v-97.49c0-24.37-3.94-41.38-11.81-51.03-7.88-9.64-21.46-14.47-40.75-14.47h-28.94v228.49h-83.78V517.83Zm114.24,228.49c16.76,0,29.32-4.31,37.7-12.95,8.38-8.63,12.57-23.1,12.57-43.41v-41.13c0-19.29-3.43-33.25-10.28-41.89-6.85-8.63-17.65-12.95-32.37-12.95h-38.08v152.33h30.47Z"/>
    <path class="cls-3" d="M2807.15,517.83h83.78v533.14h-83.78V517.83Z"/>
    <path class="cls-3" d="M2953.37,517.83h105.1l81.49,319.12h1.52v-319.12h74.64v533.14h-86.06l-100.54-389.19h-1.52v389.19h-74.64V517.83Z"/>
    <path class="cls-3" d="M3344.08,594h-87.59v-76.16h258.95v76.16h-87.59v456.98h-83.78v-456.98Z"/>
    <path class="cls-3" d="M3572.57,1023.94c-20.83-23.1-31.23-56.23-31.23-99.39v-30.47h79.21v36.56c0,34.54,14.47,51.79,43.41,51.79,14.21,0,25-4.19,32.37-12.57,7.35-8.38,11.04-21.96,11.04-40.75,0-22.34-5.08-42.01-15.23-59.03-10.16-17.01-28.94-37.44-56.36-61.31-34.54-30.46-58.65-58-72.35-82.64-13.71-24.62-20.56-52.42-20.56-83.4,0-42.14,10.66-74.76,31.99-97.87,21.33-23.1,52.29-34.65,92.92-34.65s70.45,11.56,91.01,34.65c20.56,23.11,30.85,56.24,30.85,99.39v22.09h-79.21v-27.42c0-18.28-3.56-31.61-10.66-39.99-7.12-8.38-17.52-12.57-31.23-12.57-27.93,0-41.89,17.02-41.89,51.03,0,19.3,5.2,37.32,15.61,54.08,10.4,16.76,29.32,37.07,56.74,60.93,35.03,30.47,59.15,58.15,72.35,83.02,13.2,24.88,19.8,54.08,19.8,87.59,0,43.67-10.79,77.19-32.37,100.54-21.59,23.36-52.93,35.03-94.06,35.03s-71.34-11.54-92.16-34.65Z"/>
  </g>
  <g>
    <rect class="cls-5" x="2295.52" y="305.14" width="961.28" height="75.78"/>
    <rect class="cls-2" x="374.41" y="305.14" width="961.28" height="75.78"/>
    <rect class="cls-1" x="1334.24" y="305.14" width="961.28" height="75.78"/>
    <rect class="cls-4" x="3256.8" y="305.14" width="961.28" height="75.78"/>
  </g>
  <g>
    <rect class="cls-5" x="2295.52" y="1226.81" width="961.28" height="75.78"/>
    <rect class="cls-2" x="374.41" y="1226.81" width="961.28" height="75.78"/>
    <rect class="cls-1" x="1334.24" y="1226.81" width="961.28" height="75.78"/>
    <rect class="cls-4" x="3256.8" y="1226.81" width="961.28" height="75.78"/>
  </g>
</svg>